<?xml version="1.0" encoding="utf-8"?>
<!-- Generator: Adobe Illustrator 19.2.1, SVG Export Plug-In . SVG Version: 6.00 Build 0)  -->
<svg version="1.1" id="Layer_1" xmlns="http://www.w3.org/2000/svg" xmlns:xlink="http://www.w3.org/1999/xlink" x="0px" y="0px"
	 viewBox="0 0 68.6 64.8" style="enable-background:new 0 0 68.6 64.8;" xml:space="preserve">
<path d="M48.2,24.2c-0.2-0.2-0.5-0.4-0.8-0.4H26.1l-0.9-2.5c-0.1-0.3-0.3-0.5-0.5-0.6L20.3,19c-0.5-0.2-1,0-1.2,0.5
	c-0.2,0.5,0,1,0.5,1.2l0,0l4,1.6l4.9,14.1c-0.2,0.1-0.4,0.2-0.5,0.5l-1.4,3.9c-0.1,0.4,0.1,0.9,0.5,1c0.1,0,0.2,0,0.3,0h0.7
	c-1,1.2-1,2.9,0.2,4c1.2,1,2.9,1,4-0.2c1-1.1,1-2.7,0-3.8h6.2c-1,1.2-1,2.9,0.2,4c1.2,1,2.9,1,4-0.2c1-1.1,1-2.7,0-3.8h0.9
	c0.4,0,0.8-0.4,0.8-0.8s-0.4-0.8-0.8-0.8h-15l0.9-2.4c0.1,0.1,0.2,0.1,0.4,0.1h13.8c0.4,0,0.8-0.3,0.9-0.7l3.9-12.3
	C48.4,24.8,48.4,24.5,48.2,24.2z M30.2,45.1c-0.7,0-1.3-0.6-1.3-1.3s0.6-1.3,1.3-1.3s1.3,0.6,1.3,1.3l0,0
	C31.5,44.5,30.9,45.1,30.2,45.1C30.2,45.1,30.2,45.1,30.2,45.1L30.2,45.1z M40.6,45.1c-0.7,0-1.3-0.6-1.3-1.3s0.6-1.3,1.3-1.3
	s1.3,0.6,1.3,1.3l0,0C41.8,44.5,41.3,45.1,40.6,45.1C40.5,45.1,40.5,45.1,40.6,45.1L40.6,45.1z M45.5,27.9h-4.8v-2.1h5.5L45.5,27.9z
	 M44.1,32.2h-3.5v-2.4h4.2L44.1,32.2z M34.5,32.2v-2.4h4.3v2.4H34.5L34.5,32.2z M38.8,34.1v2h-4.4v-2H38.8L38.8,34.1z M28.1,29.8
	h4.3v2.4H29L28.1,29.8z M34.4,27.9v-2.1h4.3v2.1L34.4,27.9L34.4,27.9z M32.5,25.8v2.1h-5l-0.7-2.1C26.8,25.8,32.5,25.8,32.5,25.8z
	 M29.6,34.1h2.9v2h-2.1L29.6,34.1z M40.6,36.1v-2h2.9l-0.7,2H40.6L40.6,36.1z" fill="#FFF"/>
</svg>
